<mxfile host="app.diagrams.net" modified="2023-04-06T19:28:39.946Z" agent="Mozilla/5.0 (X11; Ubuntu; Linux x86_64; rv:109.0) Gecko/20100101 Firefox/112.0" etag="INDLK3--4z2PvkWPh_NN" version="21.1.4" type="github">
  <diagram name="Page-1" id="BcCYY3gj11FTohZ3aPDq">
    <mxGraphModel dx="1360" dy="751" grid="1" gridSize="10" guides="1" tooltips="1" connect="1" arrows="1" fold="1" page="1" pageScale="1" pageWidth="850" pageHeight="1100" math="0" shadow="0">
      <root>
        <mxCell id="0" />
        <mxCell id="1" parent="0" />
        <mxCell id="mzFIE9k1Cb8Y-Et-fZ8_-1" value="sample" style="whiteSpace=wrap;html=1;aspect=fixed;" vertex="1" parent="1">
          <mxGeometry x="50" y="40" width="80" height="80" as="geometry" />
        </mxCell>
        <mxCell id="mzFIE9k1Cb8Y-Et-fZ8_-4" value="" style="verticalLabelPosition=bottom;shadow=0;dashed=0;align=center;html=1;verticalAlign=top;shape=mxgraph.electrical.logic_gates.d_type_rs_flip-flop;" vertex="1" parent="1">
          <mxGeometry x="360" y="160" width="100" height="100" as="geometry" />
        </mxCell>
        <mxCell id="mzFIE9k1Cb8Y-Et-fZ8_-5" value="rst" style="text;html=1;strokeColor=none;fillColor=none;align=center;verticalAlign=middle;whiteSpace=wrap;rounded=0;" vertex="1" parent="1">
          <mxGeometry x="380" y="270" width="60" height="30" as="geometry" />
        </mxCell>
        <mxCell id="mzFIE9k1Cb8Y-Et-fZ8_-6" value="&lt;div&gt;clk&lt;/div&gt;" style="text;html=1;strokeColor=none;fillColor=none;align=center;verticalAlign=middle;whiteSpace=wrap;rounded=0;" vertex="1" parent="1">
          <mxGeometry x="300" y="220" width="60" height="30" as="geometry" />
        </mxCell>
        <mxCell id="mzFIE9k1Cb8Y-Et-fZ8_-13" style="edgeStyle=orthogonalEdgeStyle;rounded=0;orthogonalLoop=1;jettySize=auto;html=1;entryX=0.5;entryY=0;entryDx=0;entryDy=0;" edge="1" parent="1" source="mzFIE9k1Cb8Y-Et-fZ8_-10" target="mzFIE9k1Cb8Y-Et-fZ8_-12">
          <mxGeometry relative="1" as="geometry" />
        </mxCell>
        <mxCell id="mzFIE9k1Cb8Y-Et-fZ8_-14" style="edgeStyle=orthogonalEdgeStyle;rounded=0;orthogonalLoop=1;jettySize=auto;html=1;entryX=0.5;entryY=1;entryDx=0;entryDy=0;" edge="1" parent="1" source="mzFIE9k1Cb8Y-Et-fZ8_-10" target="mzFIE9k1Cb8Y-Et-fZ8_-6">
          <mxGeometry relative="1" as="geometry" />
        </mxCell>
        <mxCell id="mzFIE9k1Cb8Y-Et-fZ8_-10" value="&lt;div&gt;prev_enable = 1&lt;br&gt;&lt;/div&gt;" style="rounded=0;whiteSpace=wrap;html=1;" vertex="1" parent="1">
          <mxGeometry x="350" y="360" width="120" height="60" as="geometry" />
        </mxCell>
        <mxCell id="mzFIE9k1Cb8Y-Et-fZ8_-23" style="edgeStyle=orthogonalEdgeStyle;rounded=0;orthogonalLoop=1;jettySize=auto;html=1;entryX=0.5;entryY=0;entryDx=0;entryDy=0;" edge="1" parent="1" source="mzFIE9k1Cb8Y-Et-fZ8_-12" target="mzFIE9k1Cb8Y-Et-fZ8_-22">
          <mxGeometry relative="1" as="geometry" />
        </mxCell>
        <mxCell id="mzFIE9k1Cb8Y-Et-fZ8_-24" style="edgeStyle=orthogonalEdgeStyle;rounded=0;orthogonalLoop=1;jettySize=auto;html=1;" edge="1" parent="1" source="mzFIE9k1Cb8Y-Et-fZ8_-7" target="mzFIE9k1Cb8Y-Et-fZ8_-6">
          <mxGeometry relative="1" as="geometry">
            <Array as="points">
              <mxPoint x="190" y="230" />
            </Array>
          </mxGeometry>
        </mxCell>
        <mxCell id="mzFIE9k1Cb8Y-Et-fZ8_-12" value="enable?" style="rhombus;whiteSpace=wrap;html=1;" vertex="1" parent="1">
          <mxGeometry x="230" y="470" width="80" height="80" as="geometry" />
        </mxCell>
        <mxCell id="mzFIE9k1Cb8Y-Et-fZ8_-15" value="yes" style="text;html=1;strokeColor=none;fillColor=none;align=center;verticalAlign=middle;whiteSpace=wrap;rounded=0;" vertex="1" parent="1">
          <mxGeometry x="310" y="360" width="60" height="30" as="geometry" />
        </mxCell>
        <mxCell id="mzFIE9k1Cb8Y-Et-fZ8_-16" value="no" style="text;html=1;strokeColor=none;fillColor=none;align=center;verticalAlign=middle;whiteSpace=wrap;rounded=0;" vertex="1" parent="1">
          <mxGeometry x="350" y="310" width="60" height="30" as="geometry" />
        </mxCell>
        <mxCell id="mzFIE9k1Cb8Y-Et-fZ8_-17" value="yes" style="text;html=1;strokeColor=none;fillColor=none;align=center;verticalAlign=middle;whiteSpace=wrap;rounded=0;" vertex="1" parent="1">
          <mxGeometry x="180" y="450" width="60" height="30" as="geometry" />
        </mxCell>
        <mxCell id="mzFIE9k1Cb8Y-Et-fZ8_-18" value="no" style="text;html=1;strokeColor=none;fillColor=none;align=center;verticalAlign=middle;whiteSpace=wrap;rounded=0;" vertex="1" parent="1">
          <mxGeometry x="310" y="480" width="60" height="30" as="geometry" />
        </mxCell>
        <mxCell id="mzFIE9k1Cb8Y-Et-fZ8_-20" value="" style="endArrow=classic;html=1;rounded=0;entryX=0.133;entryY=1.1;entryDx=0;entryDy=0;entryPerimeter=0;" edge="1" parent="1" target="mzFIE9k1Cb8Y-Et-fZ8_-6">
          <mxGeometry width="50" height="50" relative="1" as="geometry">
            <mxPoint x="310" y="510" as="sourcePoint" />
            <mxPoint x="380" y="510" as="targetPoint" />
          </mxGeometry>
        </mxCell>
        <mxCell id="mzFIE9k1Cb8Y-Et-fZ8_-22" value="prev_enable = enable" style="rounded=0;whiteSpace=wrap;html=1;" vertex="1" parent="1">
          <mxGeometry x="230" y="600" width="80" height="50" as="geometry" />
        </mxCell>
        <mxCell id="mzFIE9k1Cb8Y-Et-fZ8_-36" style="edgeStyle=orthogonalEdgeStyle;rounded=0;orthogonalLoop=1;jettySize=auto;html=1;" edge="1" parent="1" source="mzFIE9k1Cb8Y-Et-fZ8_-26" target="mzFIE9k1Cb8Y-Et-fZ8_-31">
          <mxGeometry relative="1" as="geometry" />
        </mxCell>
        <mxCell id="mzFIE9k1Cb8Y-Et-fZ8_-26" value="&lt;div style=&quot;color: rgb(212, 212, 212); background-color: rgb(30, 30, 30); font-family: &amp;quot;Droid Sans Mono&amp;quot;, &amp;quot;monospace&amp;quot;, monospace; font-weight: normal; font-size: 14px; line-height: 19px;&quot;&gt;&lt;div&gt;&lt;span style=&quot;color: #569cd6;&quot;&gt;logic&lt;/span&gt;&lt;span style=&quot;color: #d4d4d4;&quot;&gt; [&lt;/span&gt;&lt;span style=&quot;color: #b5cea8;&quot;&gt;7&lt;/span&gt;&lt;span style=&quot;color: #d4d4d4;&quot;&gt;:&lt;/span&gt;&lt;span style=&quot;color: #b5cea8;&quot;&gt;0&lt;/span&gt;&lt;span style=&quot;color: #d4d4d4;&quot;&gt;] audio_mem [&lt;/span&gt;&lt;span style=&quot;color: #b5cea8;&quot;&gt;4095&lt;/span&gt;&lt;span style=&quot;color: #d4d4d4;&quot;&gt;:&lt;/span&gt;&lt;span style=&quot;color: #b5cea8;&quot;&gt;0&lt;/span&gt;&lt;span style=&quot;color: #d4d4d4;&quot;&gt;];&lt;/span&gt;&lt;/div&gt;&lt;div&gt;&lt;span style=&quot;color: #d4d4d4;&quot;&gt;  &lt;/span&gt;&lt;span style=&quot;color: #c586c0;&quot;&gt;initial&lt;/span&gt;&lt;span style=&quot;color: #d4d4d4;&quot;&gt; &lt;/span&gt;&lt;span style=&quot;color: #dcdcaa;&quot;&gt;$readmemh&lt;/span&gt;&lt;span style=&quot;color: #d4d4d4;&quot;&gt;(SAMPLE_FILE, audio_mem, &lt;/span&gt;&lt;span style=&quot;color: #b5cea8;&quot;&gt;0&lt;/span&gt;&lt;span style=&quot;color: #d4d4d4;&quot;&gt;, SAMPLE_LEN);&lt;/span&gt;&lt;/div&gt;&lt;/div&gt;&lt;div&gt;&lt;br&gt;&lt;/div&gt;&lt;div&gt;&lt;div style=&quot;color: rgb(212, 212, 212); background-color: rgb(30, 30, 30); font-family: &amp;quot;Droid Sans Mono&amp;quot;, &amp;quot;monospace&amp;quot;, monospace; font-weight: normal; font-size: 14px; line-height: 19px;&quot;&gt;&lt;div&gt;      out &amp;lt;= audio_mem[counter];&lt;/div&gt;&lt;div&gt;&lt;span style=&quot;color: #d4d4d4;&quot;&gt;&lt;br&gt;&lt;/span&gt;&lt;/div&gt;&lt;/div&gt;&lt;/div&gt;" style="rounded=0;whiteSpace=wrap;html=1;" vertex="1" parent="1">
          <mxGeometry x="530" y="440" width="260" height="215" as="geometry" />
        </mxCell>
        <mxCell id="mzFIE9k1Cb8Y-Et-fZ8_-32" style="edgeStyle=orthogonalEdgeStyle;rounded=0;orthogonalLoop=1;jettySize=auto;html=1;" edge="1" parent="1" source="mzFIE9k1Cb8Y-Et-fZ8_-27" target="mzFIE9k1Cb8Y-Et-fZ8_-26">
          <mxGeometry relative="1" as="geometry" />
        </mxCell>
        <mxCell id="mzFIE9k1Cb8Y-Et-fZ8_-27" value="Sample_file" style="text;html=1;strokeColor=none;fillColor=none;align=center;verticalAlign=middle;whiteSpace=wrap;rounded=0;" vertex="1" parent="1">
          <mxGeometry x="440" y="520" width="60" height="30" as="geometry" />
        </mxCell>
        <mxCell id="mzFIE9k1Cb8Y-Et-fZ8_-33" style="edgeStyle=orthogonalEdgeStyle;rounded=0;orthogonalLoop=1;jettySize=auto;html=1;" edge="1" parent="1" source="mzFIE9k1Cb8Y-Et-fZ8_-28" target="mzFIE9k1Cb8Y-Et-fZ8_-26">
          <mxGeometry relative="1" as="geometry" />
        </mxCell>
        <mxCell id="mzFIE9k1Cb8Y-Et-fZ8_-28" value="Sample_len" style="text;html=1;strokeColor=none;fillColor=none;align=center;verticalAlign=middle;whiteSpace=wrap;rounded=0;" vertex="1" parent="1">
          <mxGeometry x="440" y="560" width="60" height="30" as="geometry" />
        </mxCell>
        <mxCell id="mzFIE9k1Cb8Y-Et-fZ8_-31" value="out" style="text;html=1;strokeColor=none;fillColor=none;align=center;verticalAlign=middle;whiteSpace=wrap;rounded=0;" vertex="1" parent="1">
          <mxGeometry x="820" y="532.5" width="60" height="30" as="geometry" />
        </mxCell>
        <mxCell id="mzFIE9k1Cb8Y-Et-fZ8_-37" value="" style="edgeStyle=orthogonalEdgeStyle;rounded=0;orthogonalLoop=1;jettySize=auto;html=1;" edge="1" parent="1" source="mzFIE9k1Cb8Y-Et-fZ8_-12" target="mzFIE9k1Cb8Y-Et-fZ8_-7">
          <mxGeometry relative="1" as="geometry">
            <mxPoint x="230" y="510" as="sourcePoint" />
            <mxPoint x="300" y="230" as="targetPoint" />
            <Array as="points">
              <mxPoint x="190" y="510" />
            </Array>
          </mxGeometry>
        </mxCell>
        <mxCell id="mzFIE9k1Cb8Y-Et-fZ8_-7" value="counter = counter + 1" style="rounded=0;whiteSpace=wrap;html=1;" vertex="1" parent="1">
          <mxGeometry x="120" y="360" width="120" height="60" as="geometry" />
        </mxCell>
      </root>
    </mxGraphModel>
  </diagram>
</mxfile>
